<?xml version="1.0" standalone="no"?>
<!DOCTYPE svg PUBLIC "-//W3C//DTD SVG 20010904//EN"
 "http://www.w3.org/TR/2001/REC-SVG-20010904/DTD/svg10.dtd">
<svg version="1.0" xmlns="http://www.w3.org/2000/svg"
 width="1120.000000pt" height="1120.000000pt" viewBox="0 0 1120.000000 1120.000000"
 preserveAspectRatio="xMidYMid meet">
<metadata>
Created by potrace 1.14, written by Peter Selinger 2001-2017
</metadata>
<g transform="translate(0.000000,1120.000000) scale(0.100000,-0.100000)"
fill="#000000" stroke="none">
<path d="M6778 10203 c-2 -5 -4 -1006 -3 -2225 l1 -2218 -60 58 c-33 31 -73
69 -88 84 -15 15 -28 26 -28 24 0 -3 -12 8 -28 22 -33 33 -92 81 -122 102 -13
8 -35 24 -49 36 -110 88 -342 216 -511 281 -97 38 -265 89 -329 99 -14 2 -39
7 -56 11 -16 3 -37 7 -45 8 -8 1 -44 6 -80 11 -82 10 -399 11 -505 1 -106 -11
-177 -21 -215 -32 -8 -2 -31 -7 -50 -10 -119 -20 -317 -85 -458 -150 -29 -14
-57 -25 -62 -25 -6 0 -10 -4 -10 -10 0 -5 -9 -10 -20 -10 -11 0 -20 -5 -20
-11 0 -5 -4 -8 -9 -5 -5 3 -14 -1 -21 -9 -7 -8 -16 -15 -21 -15 -10 0 -109
-61 -127 -78 -8 -7 -28 -20 -45 -29 -17 -8 -36 -21 -42 -27 -7 -6 -24 -20 -39
-31 -15 -11 -38 -29 -50 -40 -13 -11 -47 -40 -77 -65 -64 -54 -173 -163 -243
-244 -28 -33 -60 -69 -71 -82 -11 -12 -29 -35 -40 -50 -18 -24 -60 -80 -83
-109 -4 -5 -23 -35 -42 -65 -19 -30 -37 -57 -40 -60 -3 -3 -11 -16 -18 -29 -8
-13 -23 -40 -34 -60 -36 -62 -115 -223 -143 -291 -53 -124 -133 -385 -149
-485 -3 -16 -11 -55 -17 -85 -13 -64 -16 -87 -24 -158 -4 -29 -8 -62 -10 -74
-23 -118 -23 -584 0 -788 2 -25 7 -67 10 -95 2 -27 7 -61 10 -75 3 -14 8 -41
11 -60 3 -19 10 -55 16 -80 5 -25 12 -58 15 -75 7 -49 83 -306 99 -337 8 -15
12 -28 9 -28 -3 0 4 -18 15 -40 11 -21 20 -44 20 -51 0 -20 149 -313 195 -383
25 -38 45 -71 45 -72 0 -11 114 -162 198 -264 44 -54 245 -255 287 -289 75
-58 213 -159 243 -176 17 -11 32 -23 32 -27 0 -4 9 -8 20 -8 11 0 20 -3 20 -7
0 -8 157 -90 260 -136 99 -44 380 -133 380 -120 0 3 7 0 15 -7 8 -7 15 -10 15
-7 0 3 17 1 38 -3 20 -5 60 -12 87 -16 28 -3 59 -8 70 -10 125 -26 537 -26
685 0 55 10 156 28 180 33 13 2 29 8 36 14 6 5 13 7 16 4 9 -9 232 69 343 120
33 15 62 27 64 26 2 -2 7 1 10 6 3 4 31 21 61 37 53 28 195 116 215 133 6 5
30 23 55 40 25 17 55 39 66 49 12 11 39 33 60 49 47 37 132 114 153 138 24 26
33 21 31 -20 -1 -21 -1 -42 0 -48 1 -5 1 -14 0 -20 -2 -12 -2 -206 1 -220 1
-5 0 -14 -1 -20 -2 -10 -2 -96 -1 -162 l1 -32 605 0 c333 0 605 3 606 7 1 4 2
2047 2 4540 l2 4532 -607 0 c-334 0 -608 -3 -610 -7z m-1263 -4788 c124 -10
223 -29 318 -61 26 -9 53 -17 60 -18 21 -3 232 -108 235 -117 2 -5 8 -9 14 -9
6 0 23 -10 38 -22 15 -13 38 -30 50 -38 86 -56 232 -209 310 -325 19 -27 38
-53 44 -57 6 -4 7 -8 2 -8 -5 0 -2 -8 6 -17 38 -44 146 -281 168 -368 1 -5 7
-21 12 -35 5 -14 11 -32 13 -40 2 -8 11 -51 20 -95 9 -44 18 -87 20 -96 2 -9
6 -40 9 -70 4 -30 9 -76 12 -104 8 -58 7 -327 0 -400 -9 -92 -17 -150 -22
-166 -2 -9 -7 -34 -10 -55 -11 -69 -12 -79 -14 -79 -1 0 -3 -8 -5 -18 -6 -30
-56 -191 -70 -222 -120 -275 -231 -436 -415 -598 -142 -125 -394 -256 -544
-283 -16 -3 -33 -7 -36 -9 -4 -3 -25 -7 -46 -10 -22 -3 -49 -8 -62 -11 -106
-23 -338 -24 -482 -3 -63 9 -122 20 -130 23 -8 3 -26 7 -40 10 -35 6 -114 36
-205 77 -122 56 -255 151 -374 269 -61 61 -134 145 -140 163 -2 7 -7 14 -11
17 -13 9 -77 108 -99 152 -12 24 -26 50 -31 58 -5 8 -11 22 -14 30 -3 8 -10
22 -15 30 -32 54 -100 260 -116 351 -3 18 -8 35 -10 39 -2 3 -6 26 -9 51 -3
24 -8 55 -11 69 -24 122 -24 512 0 650 3 14 7 43 10 65 15 102 68 280 121 400
10 22 17 43 16 47 -1 3 5 12 13 18 8 7 15 17 15 23 0 11 78 147 89 157 3 3 19
25 36 50 41 62 56 79 165 190 118 119 204 185 325 248 55 29 166 79 183 83 4
1 12 3 17 5 8 2 86 24 105 29 3 1 25 5 50 9 25 5 54 10 65 12 11 2 54 7 95 10
41 4 76 7 77 8 3 3 127 -3 198 -9z"/>
<path d="M729 9326 c-2 -2 -24 -7 -49 -10 -144 -19 -291 -83 -375 -163 -8 -7
-17 -13 -20 -13 -13 0 -116 -115 -152 -170 -20 -30 -39 -57 -42 -60 -15 -12
-61 -144 -75 -212 -15 -73 -16 -259 -2 -315 3 -13 8 -33 11 -44 8 -37 27 -94
35 -104 5 -5 9 -13 9 -17 3 -18 46 -98 53 -98 4 0 8 -6 8 -12 0 -18 91 -121
161 -184 23 -20 138 -97 149 -100 3 0 19 -6 35 -13 56 -24 103 -39 137 -45 18
-3 44 -8 58 -11 42 -9 256 -4 290 8 8 2 35 10 60 18 25 7 66 23 93 36 26 13
47 20 47 16 0 -5 4 -3 8 2 4 6 27 24 52 40 59 39 205 185 214 213 4 12 11 22
16 22 12 0 79 142 97 205 25 93 35 278 19 357 -12 56 -16 73 -27 107 -38 117
-97 210 -193 307 -97 96 -163 141 -266 182 -115 45 -276 70 -328 50 -15 -5
-21 -4 -17 2 6 10 2 14 -6 6z"/>
<path d="M10369 6506 c-2 -2 -24 -6 -49 -9 -181 -22 -376 -156 -500 -343 -144
-220 -151 -544 -16 -769 17 -27 34 -51 38 -53 4 -2 8 -8 8 -14 0 -9 116 -126
152 -153 78 -59 199 -114 288 -132 86 -16 214 -20 275 -9 144 29 226 63 324
135 164 123 268 291 298 486 16 98 5 258 -21 333 -8 23 -13 42 -11 42 6 0 -64
133 -73 140 -4 3 -13 17 -21 32 -18 35 -122 138 -186 184 -73 53 -159 91 -260
116 -38 9 -239 21 -246 14z"/>
<path d="M186 3756 c1 -1436 2 -2614 3 -2618 0 -4 271 -7 601 -7 l600 0 1 42
c0 23 1 1201 1 2617 l1 2575 -605 1 -604 1 2 -2611z"/>
<path d="M10370 2468 c-63 -7 -145 -25 -165 -37 -5 -3 -15 -6 -20 -7 -10 -2
-51 -22 -126 -63 -50 -27 -207 -182 -229 -226 -8 -17 -18 -32 -21 -35 -14 -10
-59 -119 -77 -186 -31 -115 -33 -235 -7 -367 8 -39 45 -138 63 -164 8 -13 10
-23 6 -23 -5 0 -4 -4 1 -8 6 -4 24 -27 40 -52 84 -125 244 -246 370 -280 28
-7 54 -16 60 -19 16 -9 45 -11 165 -15 138 -5 225 11 327 60 39 19 76 34 81
34 6 0 12 3 14 8 2 4 26 25 53 47 69 54 155 146 155 164 0 5 6 14 14 20 13 11
76 131 76 145 0 2 5 17 11 33 7 15 13 37 15 48 1 11 7 40 12 65 9 47 8 206 -1
250 -3 14 -10 40 -16 58 -5 18 -10 33 -10 35 0 6 -14 46 -28 77 -65 150 -220
307 -373 377 -87 40 -156 55 -300 67 -14 1 -54 -2 -90 -6z"/>
</g>
</svg>
